<?xml version="1.0" encoding="utf-8"?>
<!-- Generator: Adobe Illustrator 26.5.0, SVG Export Plug-In . SVG Version: 6.00 Build 0)  -->
<svg version="1.1" id="Layer_1" xmlns="http://www.w3.org/2000/svg" xmlns:xlink="http://www.w3.org/1999/xlink" x="0px" y="0px"
	 viewBox="0 0 600 600" style="enable-background:new 0 0 600 600;" xml:space="preserve">
<style type="text/css">
	.st0{fill:#FFBC45;}
</style>
<g>
	<path class="st0" d="M25.61,217.66c7.8-7.09,17.9-16.47,30.3-28.18c12.4-11.69,24.46-23.39,36.15-35.09
		c16.66-16.66,32.43-32.78,47.32-48.38c14.89-15.58,25.52-26.58,31.9-32.96C214.17,30.17,256,7.84,296.76,6.06
		c40.76-1.77,76.56,12.76,107.4,43.6c12.76,12.76,24.02,28.27,33.76,46.52c9.75,18.26,15.33,38.55,16.75,60.88
		c1.42,22.34-3.19,46.25-13.82,71.77c-10.63,25.52-29.77,52.1-57.42,79.75l-51.04,51.04l-10.63-10.63l45.72-45.72
		c25.16-25.16,39.61-49.18,43.33-72.04c3.72-22.86,0.18-44.48-10.63-64.86c-10.81-20.38-25.25-39.61-43.33-57.69
		C323.17,75,291.36,56.49,261.4,53.11c-29.95-3.37-61.06,11.08-93.31,43.33c-16.31,16.31-23.92,29.96-22.86,40.94
		c1.06,11,10.82,25.7,29.24,44.13l263.71,263.71c12.76,12.76,23.66,21,32.7,24.72c9.04,3.72,18.52,2.75,28.44-2.92
		c9.92-5.67,22.69-15.59,38.28-29.77l10.63,10.63c-9.93,8.52-22.06,19.77-36.42,33.76c-14.35,14.01-28.8,28.27-43.33,42.8
		c-13.82,13.82-26.67,26.86-38.55,39.08c-11.87,12.24-21.18,22.42-27.91,30.57l-10.63-10.63c11.34-12.75,19.05-23.3,23.13-31.63
		c4.07-8.33,3.99-16.75-0.27-25.25c-4.25-8.51-12.76-19.14-25.52-31.9L125.03,230.96c-13.11-13.11-23.83-21.71-32.17-25.79
		c-8.32-4.07-16.75-4.15-25.25-0.27c-8.51,3.9-18.97,11.7-31.37,23.39L25.61,217.66z"/>
</g>
</svg>
