<svg width="473" height="170" viewBox="0 0 473 170" fill="none" xmlns="http://www.w3.org/2000/svg">
<path d="M33.35 73.4C42.31 73.4 48.47 72 54.07 70.18V60.8H53.3C53.3 60.8 48.89 72.56 33.35 72.56C19.84 72.56 8.5 57.44 8.5 37C8.5 16.56 18.86 1.44 33.35 1.44C45.04 1.44 50.71 6.41 50.71 14.74C50.71 24.96 31.04 29.09 31.04 41.41C31.04 44.63 33.35 48.76 37.13 47.92C35.73 46.73 35.03 45.54 35.03 43.37C35.03 35.04 54.84 29.86 54.84 15.3C54.84 8.93 49.38 0.599993 33.35 0.599993C15.92 0.599993 2.2 16 2.2 37C2.2 58 15.92 73.4 33.35 73.4ZM58.3422 59.75C58.3422 67.03 62.9622 73.4 71.0822 73.4C85.0122 73.4 93.2022 61.08 93.2022 44.07C93.2022 40.71 93.0622 37.91 92.7822 35.67L101.462 58.56C104.122 65.63 104.472 71.3 94.6022 71.3V72H117.562V71.3C113.292 71.3 111.052 67.45 107.972 59.75L85.5722 0.599993H84.8722C80.4622 12.22 77.8722 19.15 73.6022 30.42C72.9022 32.24 73.2522 34.13 75.2122 34.13C79.2022 34.13 81.3022 26.78 84.6622 26.78C85.5722 26.78 86.3422 27.34 86.3422 28.67C86.3422 35.95 58.3422 42.53 58.3422 59.75ZM64.2922 58.42C64.2922 41.13 87.1122 38.19 87.1122 28.81C87.1122 26.99 86.1322 26.08 84.8022 26.08C81.0922 26.08 78.5022 33.43 75.2822 33.43C74.1622 33.43 73.6022 32.59 74.5122 30.14L82.5622 8.72L91.0322 31.05C92.2922 35.18 92.5022 39.03 92.5022 44.21C92.5022 55.69 86.9722 70.04 75.2822 70.04C68.4222 70.04 64.2922 65 64.2922 58.42ZM119.661 2V2.7C125.681 2.7 126.101 7.67 126.101 21.46V52.54C126.101 66.33 125.681 71.3 119.661 71.3V72H169.711V60.45H169.011C169.011 70.53 147.661 71.3 141.011 71.3H132.121V21.46C132.121 7.67 132.541 2.7 138.561 2.7V2H119.661ZM173.938 2V2.7C179.958 2.7 180.378 7.67 180.378 21.46V52.54C180.378 66.33 179.958 71.3 173.938 71.3V72H223.988V60.45H223.288C223.288 70.53 201.938 71.3 195.288 71.3H186.398V21.46C186.398 7.67 186.818 2.7 192.838 2.7V2H173.938ZM254.788 50.02C254.788 62.9 262.278 73.4 280.338 73.4C290.978 73.4 306.728 67.66 306.728 53.59C306.728 44.98 300.218 42.67 296.648 42.67C289.298 42.67 285.518 48.48 280.058 48.48C277.258 48.48 275.788 45.89 275.788 43.72C275.788 38.82 283.068 35.88 288.458 35.88C295.318 35.88 296.298 37.77 302.528 37.77C309.598 37.77 310.368 32.45 309.318 31.33C308.128 32.8 307.008 33.36 304.908 33.36C300.358 33.36 297.558 31.4 291.328 31.4C283.348 31.4 275.088 37.63 275.088 43.72C275.088 46.66 277.118 49.18 280.058 49.18C284.958 49.18 287.198 45.26 292.868 45.26C297.908 45.26 300.218 49.46 300.218 54.5C300.218 62.34 293.288 72.56 280.268 72.56C268.298 72.56 260.808 62.41 260.808 51.91C260.808 39.8 268.298 30.7 278.658 30.7C280.828 30.7 282.508 30.14 282.508 28.04C282.508 26.43 280.898 25.8 278.518 25.8C273.268 25.8 264.168 25.38 264.168 15.23C264.168 10.96 267.738 1.44 280.758 1.44C292.098 1.44 295.808 7.88 295.808 13.13C295.808 15.79 294.548 19.99 291.188 19.99C289.718 19.99 288.528 19.5 287.688 18.03C287.128 18.31 286.778 19.01 286.778 19.78C286.778 22.86 289.508 24.47 292.588 24.47C297.068 24.47 301.338 21.18 301.338 14.39C301.338 5.01 289.368 0.599993 280.758 0.599993C264.588 0.599993 258.078 8.72 258.078 15.44C258.078 24.19 265.358 27.13 272.428 27.13C274.878 27.13 276.208 26.5 278.518 26.5C280.548 26.5 281.808 26.85 281.808 28.11C281.808 29.65 280.408 30.07 277.118 30.07C264.588 30.07 254.788 39.59 254.788 50.02ZM0.1 168H18.93V167.3C12.91 167.3 12.49 162.33 12.49 148.54V99.82C16.76 98.28 20.12 97.58 25.3 97.58C38.32 97.58 46.51 104.72 46.51 116.34C46.51 124.74 40.84 133.35 32.09 133.35C25.58 133.35 22.36 129.36 18.23 129.36C16.97 129.36 15.78 130.06 15.78 131.74C15.78 136.5 23.2 136.78 29.99 147C41.05 163.59 43.01 168 46.23 168H56.94V167.3C48.96 167.3 42.45 154.84 36.92 146.23C31.25 137.41 16.48 136.43 16.48 131.88C16.48 130.27 17.67 130.06 18.51 130.06C21.45 130.06 25.93 134.54 32.51 134.54C44.69 134.54 52.53 125.86 52.53 116.27C52.53 104.86 44.2 96.6 29.29 96.6C21.17 96.6 16.2 98 8.5 98H0.1V98.7C6.12 98.7 6.54 103.67 6.54 117.46V148.54C6.54 162.33 6.12 167.3 0.1 167.3V168ZM61.1449 98.7C67.1649 98.7 67.5849 103.67 67.5849 117.46V148.54C67.5849 162.33 67.1649 167.3 61.1449 167.3V168H111.265V156.45H110.565C110.565 166.53 89.2149 167.3 82.5649 167.3H73.6049V129.92C74.7249 128.45 76.4749 127.4 78.5049 127.47C83.4749 127.61 87.0449 133.63 95.5849 133.63C101.115 133.63 104.545 130.06 104.545 125.93H103.845C103.845 128.38 101.325 129.92 98.6649 129.92C92.5049 129.92 88.6549 125.58 81.7249 125.58C78.5049 125.58 75.7049 126.77 73.6049 128.8V98.7H85.2249C101.325 98.7 110.565 102.48 110.565 107.17V107.45H111.265V98H61.1449V98.7ZM117.591 114.8C117.591 137.76 162.671 131.81 162.671 152.88C162.671 160.65 154.621 168.14 144.401 168.14C127.741 168.14 118.571 151.48 118.571 151.48H117.871V160.86C123.051 164.71 131.241 169.4 140.481 169.4C156.651 169.4 166.731 159.74 166.731 150.01C166.731 125.51 122.491 132.3 122.491 113.12C122.491 105.35 129.631 97.44 142.651 97.44C157.631 97.44 161.901 109.2 161.901 109.2H162.601V99.82C157.211 98 151.261 96.6 142.651 96.6C126.481 96.6 117.591 105.07 117.591 114.8ZM173.049 98.7C179.069 98.7 179.489 103.67 179.489 117.46V148.54C179.489 162.33 179.069 167.3 173.049 167.3V168H191.879V167.3C185.859 167.3 185.439 162.33 185.439 148.54V137.2C188.449 138.53 195.379 140.49 201.539 140.49C217.079 140.49 225.479 129.85 225.479 118.44C225.479 105.98 217.149 96.6 202.239 96.6C194.119 96.6 189.149 98 181.449 98H173.049V98.7ZM185.439 136.5V99.82C189.709 98.28 193.069 97.58 198.249 97.58C211.269 97.58 219.459 105.84 219.459 118.51C219.459 126.91 214.209 139.09 200.279 139.09C194.189 139.09 189.009 137.97 185.439 136.5ZM265.02 169.4C282.45 169.4 296.17 154 296.17 133C296.17 112 282.45 96.6 265.02 96.6C247.59 96.6 233.87 112 233.87 133C233.87 154 247.59 169.4 265.02 169.4ZM265.02 97.44C279.51 97.44 289.87 112.56 289.87 133C289.87 153.44 278.53 168.56 265.02 168.56C251.51 168.56 240.17 153.44 240.17 133C240.17 112.56 250.53 97.44 265.02 97.44ZM302.454 98V98.7C308.474 98.7 308.894 103.67 308.894 117.46V148.54C308.894 162.33 308.474 167.3 302.454 167.3V168H321.354V167.3C315.334 167.3 309.594 159.11 309.594 138.74V101.92L353.904 169.4H354.604V117.46C354.604 103.67 355.024 98.7 361.044 98.7V98H342.144V98.7C348.164 98.7 353.904 106.89 353.904 127.26V157.78L314.704 98H302.454ZM367.376 114.8C367.376 137.76 412.456 131.81 412.456 152.88C412.456 160.65 404.406 168.14 394.186 168.14C377.526 168.14 368.356 151.48 368.356 151.48H367.656V160.86C372.836 164.71 381.026 169.4 390.266 169.4C406.436 169.4 416.516 159.74 416.516 150.01C416.516 125.51 372.276 132.3 372.276 113.12C372.276 105.35 379.416 97.44 392.436 97.44C407.416 97.44 411.686 109.2 411.686 109.2H412.386V99.82C406.996 98 401.046 96.6 392.436 96.6C376.266 96.6 367.376 105.07 367.376 114.8ZM422.834 98.7C428.854 98.7 429.274 103.67 429.274 117.46V148.54C429.274 162.33 428.854 167.3 422.834 167.3V168H472.954V156.45H472.254C472.254 166.53 450.904 167.3 444.254 167.3H435.294V129.92C436.414 128.45 438.164 127.4 440.194 127.47C445.164 127.61 448.734 133.63 457.274 133.63C462.804 133.63 466.234 130.06 466.234 125.93H465.534C465.534 128.38 463.014 129.92 460.354 129.92C454.194 129.92 450.344 125.58 443.414 125.58C440.194 125.58 437.394 126.77 435.294 128.8V98.7H446.914C463.014 98.7 472.254 102.48 472.254 107.17V107.45H472.954V98H422.834V98.7Z" fill="#F8EA6F"/>
</svg>
